<svg xmlns="http://www.w3.org/2000/svg" viewBox="0 0 300 300" width="300" height="300">

  <!-- 内层图形 -->
  <polygon 
    points="150,198 134,174 108,174 123,150 108,126 134,126 150,102 166,126 192,126 177,150 192,174 166,174" 
    fill="none" 
    stroke="#1a76bc" 
    stroke-width="3"
  />

  <!-- 外层图形（放大贴近画布边缘） -->
  <polygon 
    points="150,246 123,198 72,198 99,150 72,102 123,102 150,54 177,102 228,102 201,150 228,198 177,198" 
    fill="none" 
    stroke="#1a76bc" 
    stroke-width="3"
  />

  <!-- 三条主轴 -->
  <line x1="99" y1="150" x2="201" y2="150" stroke="#1a76bc" stroke-width="3"/>
  <line x1="123" y1="198" x2="177" y2="102" stroke="#1a76bc" stroke-width="3"/>
  <line x1="123" y1="102" x2="177" y2="198" stroke="#1a76bc" stroke-width="3"/>

  <!-- 中心点 -->
  <circle cx="150" cy="150" r="4.5" fill="#1a76bc"/>

  <!-- 内层转折点 -->
  <circle cx="150" cy="198" r="4.5" fill="#1a76bc"/>
  <circle cx="134" cy="174" r="4.5" fill="#1a76bc"/>
  <circle cx="108" cy="174" r="4.5" fill="#1a76bc"/>
  <circle cx="123" cy="150" r="4.5" fill="#1a76bc"/>
  <circle cx="108" cy="126" r="4.5" fill="#1a76bc"/>
  <circle cx="134" cy="126" r="4.5" fill="#1a76bc"/>
  <circle cx="150" cy="102" r="4.5" fill="#1a76bc"/>
  <circle cx="166" cy="126" r="4.5" fill="#1a76bc"/>
  <circle cx="192" cy="126" r="4.5" fill="#1a76bc"/>
  <circle cx="177" cy="150" r="4.5" fill="#1a76bc"/>
  <circle cx="192" cy="174" r="4.5" fill="#1a76bc"/>
  <circle cx="166" cy="174" r="4.5" fill="#1a76bc"/>

  <!-- 外层转折点 -->
  <circle cx="150" cy="246" r="4.5" fill="#1a76bc"/>
  <circle cx="123" cy="198" r="4.5" fill="#1a76bc"/>
  <circle cx="72" cy="198" r="4.5" fill="#1a76bc"/>
  <circle cx="99" cy="150" r="4.5" fill="#1a76bc"/>
  <circle cx="72" cy="102" r="4.5" fill="#1a76bc"/>
  <circle cx="123" cy="102" r="4.5" fill="#1a76bc"/>
  <circle cx="150" cy="54" r="4.5" fill="#1a76bc"/>
  <circle cx="177" cy="102" r="4.5" fill="#1a76bc"/>
  <circle cx="228" cy="102" r="4.5" fill="#1a76bc"/>
  <circle cx="201" cy="150" r="4.5" fill="#1a76bc"/>
  <circle cx="228" cy="198" r="4.5" fill="#1a76bc"/>
  <circle cx="177" cy="198" r="4.5" fill="#1a76bc"/>

  <!-- 外层边中点 -->
  <circle cx="136.5" cy="222" r="4.5" fill="#1a76bc"/>
  <circle cx="97.5" cy="198" r="4.5" fill="#1a76bc"/>
  <circle cx="90" cy="174" r="4.5" fill="#1a76bc"/>
  <circle cx="90" cy="126" r="4.5" fill="#1a76bc"/>
  <circle cx="97.5" cy="102" r="4.5" fill="#1a76bc"/>
  <circle cx="136.5" cy="78" r="4.5" fill="#1a76bc"/>
  <circle cx="163.5" cy="78" r="4.5" fill="#1a76bc"/>
  <circle cx="202.5" cy="102" r="4.5" fill="#1a76bc"/>
  <circle cx="210" cy="126" r="4.5" fill="#1a76bc"/>
  <circle cx="210" cy="174" r="4.5" fill="#1a76bc"/>
  <circle cx="202.5" cy="198" r="4.5" fill="#1a76bc"/>
  <circle cx="163.5" cy="222" r="4.5" fill="#1a76bc"/>

  <!-- 外侧短线 -->
  <line x1="97.5" y1="198" x2="90" y2="174" stroke="#1a76bc" stroke-width="3"/>
  <line x1="90" y1="126" x2="97.5" y2="102" stroke="#1a76bc" stroke-width="3"/>
  <line x1="136.5" y1="78" x2="163.5" y2="78" stroke="#1a76bc" stroke-width="3"/>
  <line x1="202.5" y1="102" x2="210" y2="126" stroke="#1a76bc" stroke-width="3"/>
  <line x1="210" y1="174" x2="202.5" y2="198" stroke="#1a76bc" stroke-width="3"/>
  <line x1="163.5" y1="222" x2="136.5" y2="222" stroke="#1a76bc" stroke-width="3"/>
</svg>
